<?xml version="1.0" standalone="no"?>
<!DOCTYPE svg PUBLIC "-//W3C//DTD SVG 20010904//EN"
 "http://www.w3.org/TR/2001/REC-SVG-20010904/DTD/svg10.dtd">
<svg version="1.0" xmlns="http://www.w3.org/2000/svg"
 width="1280.000000pt" height="1086.000000pt" viewBox="0 0 1280.000000 1086.000000"
 preserveAspectRatio="xMidYMid meet">
<g transform="translate(0.000000,1086.000000) scale(0.100000,-0.100000)"
fill="#000000" stroke="none">
<path d="M0 5430 l0 -5430 6400 0 6400 0 0 5430 0 5430 -6400 0 -6400 0 0
-5430z m2298 3863 l-3 -728 -665 0 -665 0 -3 728 -2 727 670 0 670 0 -2 -727z
m9540 0 l-3 -728 -665 0 -665 0 -3 728 -2 727 670 0 670 0 -2 -727z m-9538
-1933 l0 -730 -670 0 -670 0 0 730 0 730 670 0 670 0 0 -730z m9540 0 l0 -730
-670 0 -670 0 0 730 0 730 670 0 670 0 0 -730z m-4978 -626 c1140 -658 2080
-1202 2088 -1210 9 -9 11 -17 5 -23 -16 -15 -4158 -2403 -4177 -2409 -17 -4
-18 116 -18 2417 0 2071 2 2421 14 2421 8 0 947 -538 2088 -1196z m-4562
-1304 l0 -730 -670 0 -670 0 0 730 0 730 670 0 670 0 0 -730z m9540 0 l0 -730
-670 0 -670 0 0 730 0 730 670 0 670 0 0 -730z m-9540 -1930 l0 -730 -670 0
-670 0 0 730 0 730 670 0 670 0 0 -730z m9540 0 l0 -730 -670 0 -670 0 0 730
0 730 670 0 670 0 0 -730z m-9542 -1932 l2 -728 -670 0 -670 0 0 723 c0 398 3
727 7 730 3 4 304 6 667 5 l661 -3 3 -727z m9540 0 l2 -728 -670 0 -670 0 0
723 c0 398 3 727 7 730 3 4 304 6 667 5 l661 -3 3 -727z"/>
</g>
</svg>
